<svg xmlns="http://www.w3.org/2000/svg" viewBox="0 0 183.43 190.83"><defs><style>.a{fill:#3aa173;}.b{fill:#349167;}.c{fill:#2f4052;}.d{fill:#2a3a4a;}.e{fill:#34485d;}.f{fill:#283747;}.g{fill:#328a62;}.h{fill:#41b682;}</style></defs><title>logo2</title><polygon class="a" points="0 4.5 19.21 0 52.05 8.8 32.84 13.3 0 4.5"/><polygon class="b" points="32.84 13.3 52.05 8.8 88.57 120.59 69.36 125.09 32.84 13.3"/><polygon class="c" points="32.84 13.3 52.05 8.8 82.36 16.92 63.15 21.42 32.84 13.3"/><polygon class="d" points="63.15 21.42 82.36 16.92 96.41 59.95 77.21 64.45 63.15 21.42"/><polygon class="c" points="101.08 31.58 120.28 27.08 150.59 35.2 131.38 39.7 101.08 31.58"/><polygon class="e" points="131.38 39.7 69.36 125.09 32.84 13.3 63.15 21.42 77.21 64.45 101.08 31.58 131.38 39.7"/><polygon class="f" points="131.38 39.7 150.59 35.2 88.57 120.59 69.36 125.09 131.38 39.7"/><polygon class="a" points="131.38 39.7 150.59 35.2 183.43 44 164.22 48.5 131.38 39.7"/><polygon class="g" points="164.22 48.5 183.43 44 80.07 186.33 60.86 190.83 164.22 48.5"/><polygon class="h" points="164.22 48.5 60.86 190.83 0 4.5 32.84 13.3 69.36 125.09 131.38 39.7 164.22 48.5"/></svg>