<svg xmlns="http://www.w3.org/2000/svg" viewBox="0 0 686.39 190.83"><defs><style>.a{fill:#3aa173;}.b{fill:#349167;}.c{fill:#2f4052;}.d{fill:#2a3a4a;}.e{fill:#34485d;}.f{fill:#283747;}.g{fill:#328a62;}.h{fill:#41b682;}</style></defs><title>logo2</title><polygon class="a" points="0 4.5 19.21 0 52.05 8.8 32.84 13.3 0 4.5"/><polygon class="b" points="32.84 13.3 52.05 8.8 88.57 120.59 69.36 125.09 32.84 13.3"/><polygon class="c" points="32.84 13.3 52.05 8.8 82.36 16.92 63.15 21.42 32.84 13.3"/><polygon class="d" points="63.15 21.42 82.36 16.92 96.41 59.95 77.21 64.45 63.15 21.42"/><polygon class="c" points="101.08 31.58 120.28 27.08 150.59 35.2 131.38 39.7 101.08 31.58"/><polygon class="e" points="131.38 39.7 69.36 125.09 32.84 13.3 63.15 21.42 77.21 64.45 101.08 31.58 131.38 39.7"/><polygon class="f" points="131.38 39.7 150.59 35.2 88.57 120.59 69.36 125.09 131.38 39.7"/><polygon class="a" points="131.38 39.7 150.59 35.2 183.43 44 164.22 48.5 131.38 39.7"/><polygon class="g" points="164.22 48.5 183.43 44 80.07 186.33 60.86 190.83 164.22 48.5"/><polygon class="h" points="164.22 48.5 60.86 190.83 0 4.5 32.84 13.3 69.36 125.09 131.38 39.7 164.22 48.5"/><path d="M253.65,194.53,215,76.21h16.5L250,134.49c5.09,16,9.48,30.37,12.64,44.24H263c3.33-13.7,8.25-28.62,13.51-44.07l20-58.45h16.32L270.5,194.53Z" transform="translate(0 -18.3)"/><path d="M393,171.35c0,8.78.18,16.51.71,23.18h-13.7l-.88-13.87h-.35a32,32,0,0,1-28.09,15.8c-13.34,0-29.31-7.37-29.31-37.22V109.56h15.45v47.05c0,16.15,4.91,27,19,27,10.35,0,17.55-7.19,20.36-14a22.53,22.53,0,0,0,1.4-7.9V109.56H393Z" transform="translate(0 -18.3)"/><path d="M427.28,154.85c.35,20.89,13.69,29.5,29.14,29.5,11.06,0,17.73-1.94,23.52-4.39L482.58,191c-5.45,2.45-14.75,5.26-28.27,5.26-26.16,0-41.78-17.2-41.78-42.83s15.1-45.82,39.85-45.82c27.74,0,35.11,24.4,35.11,40a57.27,57.27,0,0,1-.53,7.19Zm45.29-11.06c.18-9.83-4-25.1-21.42-25.1-15.62,0-22.47,14.39-23.7,25.1Z" transform="translate(0 -18.3)"/><path d="M597.21,189.26a110.09,110.09,0,0,1-36.34,6.5c-17.9,0-32.65-4.57-44.24-15.63-10.18-9.83-16.5-25.63-16.5-44.06.18-35.29,24.4-61.09,64.08-61.09,13.69,0,24.4,3,29.49,5.44L590,92.88c-6.32-2.81-14.22-5.09-26.15-5.09-28.79,0-47.58,17.91-47.58,47.58,0,30,18.08,47.75,45.65,47.75,10,0,16.85-1.41,20.36-3.16V144.67h-24V132.38h39Z" transform="translate(0 -18.3)"/><path d="M620.56,76.21h15.27v105.5h50.56v12.82H620.56Z" transform="translate(0 -18.3)"/></svg>